# xmcd
#
# Track frame offsets: 
#        150
#        32467
#        55001
#        69034
#        89700
#        120692
#        145323
#        165877
#        184877
#        228126
#        248317
#
# Disc length: 3714 seconds
#
# Revision: 2
# Processed by: cddbd v1.5.2PL0 Copyright (c) Steve Scherf et al.
# Submitted via: ExactAudioCopy v1.3
#
DISCID=7e0e800b
DTITLE=Frans Bruggen and Orchestra Of the 18th Century - Haydn Storm and S
DTITLE=tress and Paris and London Symphonies CD08
DYEAR=1988
DGENRE=Classical
TTITLE0=Haydn Symphony No 89 in F Hob I 89 - 1 Vivace
TTITLE1=Haydn Symphony No 89 in F Hob I 89 - 2 Andante con moto
TTITLE2=Haydn Symphony No 89 in F Hob I 89 - 3 Menuet(Allegretto)
TTITLE3=Haydn Symphony No 89 in F Hob I 89 - 4 Finale(Vivace assai)
TTITLE4=Haydn Symphony No 88 in G Hob I 88 - 1 Adagio Allegro
TTITLE5=Haydn Symphony No 88 in G Hob I 88 - 2 Largo
TTITLE6=Haydn Symphony No 88 in G Hob I 88 - 3 Menuetto(Allegretto)
TTITLE7=Haydn Symphony No 88 in G Hob I 88 - 4 Finale(Allegro con spir
TTITLE7=ito)
TTITLE8=Lucy van Dael and Wouter Moller and Ku Ebbinge and Danny Bond and Fran
TTITLE8=s Bruggen and Orchestra Of the 18th Century - Haydn Sinfonia Con
TTITLE8=certante in B Flat Hob I 105 - 1 Allegro
TTITLE9=Lucy van Dael and Wouter Moller and Ku Ebbinge and Danny Bond and Fran
TTITLE9=s Bruggen and Orchestra Of the 18th Century - Haydn Sinfonia Con
TTITLE9=certante in B Flat Hob I 105 - 2 Andante
TTITLE10=Lucy van Dael and Wouter Moller and Ku Ebbinge and Danny Bond and Fra
TTITLE10=ns Bruggen and Orchestra Of the 18th Century - Haydn Sinfonia C
TTITLE10=oncertante in B Flat Hob I 105 - 3 Allegro con spirto
EXTD=
EXTT0=
EXTT1=
EXTT2=
EXTT3=
EXTT4=
EXTT5=
EXTT6=
EXTT7=
EXTT8=
EXTT9=
EXTT10=
PLAYORDER=
